<svg xmlns="http://www.w3.org/2000/svg">
    <symbol id="twitter">
        <path d="M37.645 10.1854C36.4202 10.7138 35.0873 11.094 33.7144 11.2421C35.1398 10.3953 36.2072 9.05748 36.7164 7.47966C35.3788 8.27533 33.9136 8.83327 32.3855 9.12873C31.7469 8.44599 30.9745 7.90209 30.1165 7.53092C29.2585 7.15975 28.3332 6.96927 27.3983 6.97133C23.6159 6.97133 20.5739 10.0373 20.5739 13.7998C20.5739 14.3281 20.6379 14.8564 20.742 15.3648C15.0783 15.0686 10.027 12.3628 6.66887 8.22014C6.05697 9.26528 5.73632 10.4553 5.74026 11.6664C5.74026 14.0359 6.94505 16.1253 8.78224 17.3541C7.69955 17.3114 6.64222 17.0138 5.69624 16.4855V16.5696C5.69624 19.8877 8.04176 22.6375 11.1678 23.2699C10.5808 23.4224 9.97704 23.5004 9.37062 23.5021C8.92633 23.5021 8.50606 23.458 8.08178 23.398C8.94634 26.1037 11.464 28.069 14.4619 28.1331C12.1164 29.9703 9.17849 31.051 5.98843 31.051C5.41605 31.051 4.88771 31.0309 4.33936 30.9669C7.36532 32.9082 10.9556 34.0289 14.8222 34.0289C27.3743 34.0289 34.2428 23.6301 34.2428 14.6043C34.2428 14.3081 34.2428 14.0119 34.2227 13.7157C35.5516 12.7431 36.7164 11.5383 37.645 10.1854Z"/>
        
    </symbol>
    <symbol id="facebook">
        <path d="M35.7103 4.48962H6.25117C5.54271 4.48962 4.97034 5.062 4.97034 5.77046V35.2296C4.97034 35.938 5.54271 36.5104 6.25117 36.5104H35.7103C36.4187 36.5104 36.9911 35.938 36.9911 35.2296V5.77046C36.9911 5.062 36.4187 4.48962 35.7103 4.48962ZM32.0119 13.8357H29.4542C27.4489 13.8357 27.0607 14.7883 27.0607 16.1892V19.2752H31.8478L31.2234 24.1064H27.0607V36.5104H22.0694V24.1104H17.8947V19.2752H22.0694V15.7129C22.0694 11.5782 24.5951 9.32476 28.2855 9.32476C30.0546 9.32476 31.5716 9.45685 32.0159 9.51689V13.8357H32.0119Z"/>
    </symbol>
    <symbol id="link">
        <path d="M35.6981 4.48962H6.23902C5.53056 4.48962 4.95819 5.062 4.95819 5.77046V35.2296C4.95819 35.938 5.53056 36.5104 6.23902 36.5104H35.6981C36.4066 36.5104 36.979 35.938 36.979 35.2296V5.77046C36.979 5.062 36.4066 4.48962 35.6981 4.48962ZM14.4564 31.7753H9.70527V16.4934H14.4564V31.7753ZM12.0828 14.4041C11.5382 14.4041 11.0057 14.2425 10.5529 13.94C10.1 13.6374 9.74707 13.2073 9.53865 12.7041C9.33022 12.2009 9.27568 11.6472 9.38194 11.113C9.4882 10.5789 9.75047 10.0882 10.1356 9.70305C10.5207 9.31792 11.0114 9.05565 11.5456 8.9494C12.0798 8.84314 12.6335 8.89768 13.1366 9.1061C13.6398 9.31453 14.0699 9.66749 14.3725 10.1203C14.6751 10.5732 14.8366 11.1056 14.8366 11.6503C14.8326 13.1713 13.5998 14.4041 12.0828 14.4041ZM32.2439 31.7753H27.4968V24.3425C27.4968 22.5694 27.4648 20.2919 25.0272 20.2919C22.5576 20.2919 22.1774 22.2211 22.1774 24.2144V31.7753H17.4343V16.4934H21.9892V18.5828H22.0533C22.6857 17.382 24.2347 16.1132 26.5482 16.1132C31.3593 16.1132 32.2439 19.2792 32.2439 23.3939V31.7753Z" />

    </symbol>
    <symbol id="geo">
        <path d="M23.5 27.34C27.7281 27.34 31.1666 23.9015 31.1666 19.6734C31.1666 15.4452 27.7281 12.0067 23.5 12.0067C19.2718 12.0067 15.8333 15.4452 15.8333 19.6734C15.8333 23.9015 19.2718 27.34 23.5 27.34ZM23.5 15.84C25.6141 15.84 27.3333 17.5593 27.3333 19.6734C27.3333 21.7875 25.6141 23.5067 23.5 23.5067C21.3859 23.5067 19.6666 21.7875 19.6666 19.6734C19.6666 17.5593 21.3859 15.84 23.5 15.84Z" />
        <path d="M22.3884 42.3169C22.7128 42.5486 23.1014 42.6731 23.5001 42.6731C23.8987 42.6731 24.2873 42.5486 24.6117 42.3169C25.1944 41.9048 38.889 32.0168 38.8334 19.6734C38.8334 11.219 31.9545 4.34009 23.5001 4.34009C15.0457 4.34009 8.16673 11.219 8.16673 19.6638C8.11115 32.0168 21.8057 41.9048 22.3884 42.3169ZM23.5001 8.17342C29.8423 8.17342 35.0001 13.3312 35.0001 19.683C35.0403 28.1892 26.5897 35.8271 23.5001 38.3322C20.4123 35.8252 11.9598 28.1853 12.0001 19.6734C12.0001 13.3312 17.1578 8.17342 23.5001 8.17342Z"/>
    </symbol>
    <symbol id="phone">
        <path d="M23.8334 1.46509H12.1667C9.74585 1.46509 7.79169 3.41925 7.79169 5.84009V29.1734C7.79169 31.5943 9.74585 33.5484 12.1667 33.5484H23.8334C26.2542 33.5484 28.2084 31.5943 28.2084 29.1734V5.84009C28.2084 3.41925 26.2542 1.46509 23.8334 1.46509ZM20.9167 30.6318H15.0834V29.1734H20.9167V30.6318ZM25.6563 26.2568H10.3438V5.84009H25.6563V26.2568Z"/>
    </symbol>
    <symbol id="bell">
        <path d="M17.7857 37.7832L11.4971 31.4615L15.66 27.257L21.919 33.6085L17.7857 37.7832ZM38.4524 20.1899V29.1356H32.5476V20.1899H38.4524ZM59.5029 31.4615L53.2143 37.7832L49.081 33.6085L55.34 27.257L59.5029 31.4615ZM13.3571 48.518V54.4818H4.5V48.518H13.3571ZM57.6429 48.518H66.5V54.4818H57.6429V48.518ZM17.7857 76.8461H53.2143C54.7803 76.8461 56.2822 77.4744 57.3896 78.5928C58.4969 79.7113 59.119 81.2282 59.119 82.8099H11.881C11.881 81.2282 12.5031 79.7113 13.6104 78.5928C14.7178 77.4744 16.2197 76.8461 17.7857 76.8461ZM35.5 32.1175C40.1981 32.1175 44.7038 34.0025 48.0259 37.3578C51.348 40.7131 53.2143 45.2639 53.2143 50.009V73.8642H17.7857V50.009C17.7857 45.2639 19.652 40.7131 22.9741 37.3578C26.2962 34.0025 30.8019 32.1175 35.5 32.1175Z"/>
    </symbol>
    <symbol id="atom">
        <path d="M33.5 46.9899C34.4309 46.9899 35.3238 47.3597 35.982 48.018C36.6403 48.6762 37.0101 49.5691 37.0101 50.5C37.0101 51.4309 36.6403 52.3238 35.982 52.982C35.3238 53.6403 34.4309 54.0101 33.5 54.0101C32.5691 54.0101 31.6762 53.6403 31.018 52.982C30.3597 52.3238 29.9899 51.4309 29.9899 50.5C29.9899 49.5691 30.3597 48.6762 31.018 48.018C31.6762 47.3597 32.5691 46.9899 33.5 46.9899ZM6.19132 23.1913C11.2108 18.1719 22.0921 20.4183 33.5 27.8949C44.9079 20.4183 55.7892 18.1719 60.8087 23.1913C65.8281 28.2108 63.5817 39.0921 56.1051 50.5C63.5817 61.9079 65.8281 72.7892 60.8087 77.8087C55.7892 82.8281 44.9079 80.5817 33.5 73.1051C22.0921 80.5817 11.2108 82.8281 6.19132 77.8087C1.17186 72.7892 3.41833 61.9079 10.8949 50.5C3.41833 39.0921 1.17186 28.2108 6.19132 23.1913ZM45.9258 38.0742C48.067 40.2505 50.0326 42.4618 51.8579 44.6732C56.7018 37.1967 58.4569 30.7732 55.8243 28.1757C53.2268 25.5431 46.8033 27.2982 39.3268 32.1421C41.5382 33.9674 43.7495 35.933 45.9258 38.0742ZM21.0742 62.9258C18.933 60.7495 16.9674 58.5382 15.1421 56.3268C10.2982 63.8033 8.54309 70.2268 11.1757 72.8243C13.7732 75.4569 20.1967 73.7018 27.6732 68.8579C25.4618 67.0326 23.2505 65.067 21.0742 62.9258ZM11.1757 28.1757C8.54309 30.7732 10.2982 37.1967 15.1421 44.6732C16.9674 42.4618 18.933 40.2505 21.0742 38.0742C23.2505 35.933 25.4618 33.9674 27.6732 32.1421C20.1967 27.2982 13.7732 25.5431 11.1757 28.1757ZM26.0586 57.9414C28.5156 60.3985 31.0429 62.645 33.5 64.6458C35.9571 62.645 38.4844 60.3985 40.9414 57.9414C43.3985 55.4844 45.645 52.9571 47.6458 50.5C45.645 48.0429 43.3985 45.5156 40.9414 43.0586C38.4844 40.6015 35.9571 38.355 33.5 36.3542C31.0429 38.355 28.5156 40.6015 26.0586 43.0586C23.6015 45.5156 21.355 48.0429 19.3542 50.5C21.355 52.9571 23.6015 55.4844 26.0586 57.9414ZM55.8243 72.8243C58.4569 70.2268 56.7018 63.8033 51.8579 56.3268C50.0326 58.5382 48.067 60.7495 45.9258 62.9258C43.7495 65.067 41.5382 67.0326 39.3268 68.8579C46.8033 73.7018 53.2268 75.4569 55.8243 72.8243Z"/>
    </symbol>
    <symbol id="screen">
        <path d="M52.5873 46.5001H46.9109V55.0146H38.3964V60.691H52.5873V46.5001ZM18.5291 37.9856H27.0436V32.3092H12.8527V46.5001H18.5291V37.9856ZM58.2636 20.9565H7.17636C5.6709 20.9565 4.22709 21.5546 3.16257 22.6191C2.09804 23.6836 1.5 25.1274 1.5 26.6329V66.3674C1.5 67.8728 2.09804 69.3166 3.16257 70.3811C4.22709 71.4457 5.6709 72.0437 7.17636 72.0437H58.2636C59.7691 72.0437 61.2129 71.4457 62.2774 70.3811C63.342 69.3166 63.94 67.8728 63.94 66.3674V26.6329C63.94 25.1274 63.342 23.6836 62.2774 22.6191C61.2129 21.5546 59.7691 20.9565 58.2636 20.9565ZM58.2636 66.3674H7.17636V26.6329H58.2636V66.3674Z"/>
    </symbol>
    <symbol id="burger">
        <path d="M11 13.25H55V17.6667H11V13.25ZM22 24.2917H55V28.7083H22V24.2917ZM35.75 35.3333H55V39.75H35.75V35.3333Z"/>
    </symbol>
</svg>