<svg width="62" height="62" viewBox="0 0 71 103" fill="none" xmlns="http://www.w3.org/2000/svg">
<path d="M17.7857 37.7832L11.4971 31.4615L15.66 27.257L21.919 33.6085L17.7857 37.7832ZM38.4524 20.1899V29.1356H32.5476V20.1899H38.4524ZM59.5029 31.4615L53.2143 37.7832L49.081 33.6085L55.34 27.257L59.5029 31.4615ZM13.3571 48.518V54.4818H4.5V48.518H13.3571ZM57.6429 48.518H66.5V54.4818H57.6429V48.518ZM17.7857 76.8461H53.2143C54.7803 76.8461 56.2822 77.4744 57.3896 78.5928C58.4969 79.7113 59.119 81.2282 59.119 82.8099H11.881C11.881 81.2282 12.5031 79.7113 13.6104 78.5928C14.7178 77.4744 16.2197 76.8461 17.7857 76.8461ZM35.5 32.1175C40.1981 32.1175 44.7038 34.0025 48.0259 37.3578C51.348 40.7131 53.2143 45.2639 53.2143 50.009V73.8642H17.7857V50.009C17.7857 45.2639 19.652 40.7131 22.9741 37.3578C26.2962 34.0025 30.8019 32.1175 35.5 32.1175Z" fill="#03D6F3"/>
</svg>
