<svg width="65" height="93" viewBox="0 0 65 93" fill="none" xmlns="http://www.w3.org/2000/svg">
<path d="M52.5873 46.5001H46.9109V55.0146H38.3964V60.691H52.5873V46.5001ZM18.5291 37.9856H27.0436V32.3092H12.8527V46.5001H18.5291V37.9856ZM58.2636 20.9565H7.17636C5.6709 20.9565 4.22709 21.5546 3.16257 22.6191C2.09804 23.6836 1.5 25.1274 1.5 26.6329V66.3674C1.5 67.8728 2.09804 69.3166 3.16257 70.3811C4.22709 71.4457 5.6709 72.0437 7.17636 72.0437H58.2636C59.7691 72.0437 61.2129 71.4457 62.2774 70.3811C63.342 69.3166 63.94 67.8728 63.94 66.3674V26.6329C63.94 25.1274 63.342 23.6836 62.2774 22.6191C61.2129 21.5546 59.7691 20.9565 58.2636 20.9565ZM58.2636 66.3674H7.17636V26.6329H58.2636V66.3674Z" fill="#03D6F3"/>
</svg>
